# xmcd CD database file
# Copyright (C) 1996 Ti Kan
#
# Track frame offsets:
# 	150
# 	14532
# 	28922
# 	43410
# 	58810
# 	74130
#
# Disc length: 1191 seconds
#
# Revision: 1
# Processed by: cddbd v1.4b41PL1 Copyright (c) Steve Scherf et al.
# Submitted via: DiscPlay 3.4.1
#
DISCID=5f04a506
DTITLE=Lee Ann Womack - Never Again, Again
DYEAR=1900
DGENRE=
TTITLE0=Never Again, Again (Cold Intro)
TTITLE1=Never Again, Again (Cold Intro)
TTITLE2=Never Again, Again (Cold Intro)
TTITLE3=Never Again, Again (Intro :12)
TTITLE4=Never Again, Again (Intro :12)
TTITLE5=Never Again, Again (Intro :12)
EXTD=
EXTT0=
EXTT1=
EXTT2=
EXTT3=
EXTT4=
EXTT5=
PLAYORDER=
